<svg width="200" height="55" viewBox="0 0 200 55" fill="none" xmlns="http://www.w3.org/2000/svg">
<path d="M31.6979 54.4761C29.4618 50.864 27.3547 47.5313 25.3767 44.4782C23.3986 41.3821 21.6355 38.673 20.0875 36.3509C18.5824 34.0288 17.3784 32.2228 16.4753 30.9327C15.6153 29.5997 15.1853 28.9332 15.1853 28.9332H14.4113L14.4758 45.3168C14.4758 46.4348 14.6478 47.2303 14.9918 47.7033C15.3358 48.1764 15.9378 48.4129 16.7978 48.4129C17.0559 48.4129 17.3784 48.3914 17.7654 48.3484C18.1954 48.3054 18.5609 48.2839 18.8619 48.2839C19.1629 48.2409 19.3134 48.2194 19.3134 48.2194L19.765 48.6709L19.1199 53.3795C19.1199 53.3795 18.7759 53.358 18.0879 53.315C17.4429 53.315 16.6258 53.2935 15.6368 53.2505C14.6478 53.2075 13.6587 53.1645 12.6697 53.1215C11.6807 53.1215 10.8421 53.1215 10.1541 53.1215C8.86406 53.1215 7.53101 53.1645 6.15496 53.2505C4.82191 53.3365 3.68237 53.4225 2.73634 53.5085C1.83331 53.5946 1.38179 53.6376 1.38179 53.6376V48.6963C2.62884 48.5243 4.13389 48.1119 4.73591 47.5098C5.33793 46.9078 5.66044 45.9403 5.70345 44.6072L6.47747 20.4189C6.47747 18.9568 6.15496 17.9678 5.50994 17.4518C4.86492 16.9357 3.51037 16.5702 1.44629 16.3552L0.80127 15.6457L1.25279 11.2595C1.25279 11.2595 1.6828 11.281 2.54283 11.324C3.40286 11.367 4.4779 11.4315 5.76795 11.5175C7.05799 11.5605 8.32654 11.582 9.57359 11.582C10.6056 11.582 11.6592 11.5605 12.7342 11.5175C13.8522 11.4745 14.7768 11.4315 15.5078 11.3885C16.2818 11.3455 16.6688 11.324 16.6688 11.324C18.1309 13.8181 19.5714 16.2477 20.9905 18.6128C22.4525 20.9349 23.8286 23.1065 25.1186 25.1275C26.4517 27.1486 27.6127 28.9332 28.6018 30.4812C29.6338 31.9863 30.4293 33.1688 30.9884 34.0288C31.5474 34.8889 31.8269 35.3189 31.8269 35.3189H32.6009L32.4719 19.1933C32.4289 18.1183 32.2354 17.3873 31.8914 17.0002C31.5904 16.6132 31.0744 16.4197 30.3433 16.4197C29.9563 16.4197 29.5478 16.4197 29.1178 16.4197C28.7308 16.4197 28.4083 16.4197 28.1503 16.4197L27.8922 15.8392L28.3438 11.324C28.3438 11.324 28.6663 11.3455 29.3113 11.3885C29.9563 11.3885 30.7733 11.41 31.7624 11.453C32.7944 11.496 33.8265 11.539 34.8585 11.582C35.8905 11.582 36.8151 11.582 37.6321 11.582C38.7501 11.582 39.9327 11.5605 41.1797 11.5175C42.4698 11.4745 43.5663 11.4315 44.4693 11.3885C45.3724 11.3455 45.8239 11.324 45.8239 11.324L45.5014 16.2262C44.0823 16.3982 43.0718 16.8067 42.4698 17.4518C41.9108 18.0538 41.6097 18.9998 41.5667 20.2899L40.7282 53.6376L31.6979 54.4761Z" fill="#212121"/>
<path d="M61.2959 53.8956C58.4578 53.8956 55.9637 53.2935 53.8136 52.0895C51.7065 50.8425 50.0725 49.1009 48.9114 46.8648C47.7504 44.5857 47.1699 41.9411 47.1699 38.931C47.1699 35.5339 47.8149 32.6098 49.1049 30.1587C50.438 27.6646 52.2871 25.7295 54.6521 24.3535C57.0602 22.9775 59.8553 22.2894 63.0374 22.2894C66.0045 22.2894 68.5416 22.8914 70.6487 24.0955C72.7558 25.2565 74.3683 26.9551 75.4864 29.1912C76.6044 31.4273 77.1634 34.1149 77.1634 37.254C77.1634 40.6081 76.4969 43.5322 75.1639 46.0263C73.8738 48.5204 72.0463 50.4554 69.6812 51.8315C67.3591 53.2075 64.564 53.8956 61.2959 53.8956ZM62.3924 48.1549C63.8975 48.1549 65.0155 47.5528 65.7465 46.3488C66.4776 45.1017 66.8431 43.1452 66.8431 40.4791C66.8431 37.727 66.6496 35.4909 66.2626 33.7708C65.9185 32.0078 65.3595 30.7392 64.5855 29.9652C63.8545 29.1482 62.9084 28.7397 61.7474 28.7397C60.2423 28.7397 59.1243 29.3417 58.3933 30.5457C57.6622 31.7498 57.2967 33.6633 57.2967 36.2864C57.2967 39.0815 57.4687 41.3606 57.8128 43.1237C58.1998 44.8867 58.7803 46.1768 59.5543 46.9938C60.3283 47.7678 61.2744 48.1549 62.3924 48.1549Z" fill="#212121"/>
<path d="M87.7837 54.0246C87.7837 54.0246 87.6546 53.5731 87.3966 52.67C87.1816 51.767 86.8806 50.5629 86.4936 49.0579C86.1066 47.5528 85.6766 45.9403 85.2036 44.2202C84.7736 42.4571 84.322 40.6941 83.849 38.931C83.419 37.168 83.0105 35.5984 82.6235 34.2224C82.2365 32.8033 81.9354 31.7068 81.7204 30.9327C81.0324 28.8257 79.7639 27.7506 77.9148 27.7076L77.7858 27.3851L78.2373 22.9344C78.2373 22.9344 78.6028 22.9559 79.3338 22.999C80.1079 22.999 80.9894 23.0205 81.9784 23.0635C83.0105 23.0635 83.9135 23.0635 84.6875 23.0635C86.1496 23.0635 87.5901 23.0205 89.0092 22.9344C90.4283 22.8484 91.5893 22.7839 92.4923 22.7409C93.4384 22.6549 93.9114 22.6119 93.9114 22.6119L94.0404 22.9344L93.4599 27.5141C92.2128 27.6861 91.4388 27.8581 91.1378 28.0301C90.8368 28.2021 90.6863 28.5892 90.6863 29.1912C90.6863 29.4492 90.7508 30.0297 90.8798 30.9327C91.0518 31.7928 91.2453 32.8248 91.4603 34.0288C91.7183 35.2329 91.9763 36.4799 92.2343 37.77C92.5353 39.017 92.7933 40.1781 93.0083 41.2531C93.2663 42.3281 93.4599 43.2097 93.5889 43.8977C93.7609 44.5857 93.8469 44.9297 93.8469 44.9297H94.6854C94.9004 44.4137 95.1799 43.6182 95.5239 42.5432C95.8679 41.4681 96.2335 40.2641 96.6205 38.931C97.0075 37.598 97.373 36.2864 97.717 34.9964C98.104 33.7063 98.4265 32.5883 98.6845 31.6423C98.9426 30.6962 99.1146 30.0512 99.2006 29.7072C99.0716 28.9332 98.7921 28.4171 98.362 28.1591C97.975 27.9011 97.2225 27.7721 96.1045 27.7721L95.9109 27.3851L96.4915 22.9344C96.4915 22.9344 96.857 22.9559 97.588 22.999C98.319 22.999 99.1791 23.0205 100.168 23.0635C101.2 23.0635 102.103 23.0635 102.877 23.0635C104.339 23.0635 105.758 23.0205 107.134 22.9344C108.51 22.8484 109.628 22.7839 110.488 22.7409C111.392 22.6979 111.843 22.6764 111.843 22.6764L111.972 22.999L111.327 27.5141C110.08 27.6861 109.306 27.8581 109.005 28.0301C108.704 28.2021 108.553 28.5892 108.553 29.1912C108.553 29.4492 108.618 30.0297 108.747 30.9327C108.919 31.7928 109.134 32.8248 109.392 34.0288C109.65 35.1899 109.908 36.4154 110.166 37.7055C110.424 38.9955 110.682 40.1781 110.94 41.2531C111.198 42.3281 111.392 43.2097 111.521 43.8977C111.693 44.5857 111.779 44.9297 111.779 44.9297H112.617C113.52 42.2206 114.316 39.7266 115.004 37.4475C115.735 35.1684 116.294 33.2763 116.681 31.7713C117.111 30.2662 117.326 29.3202 117.326 28.9332C117.326 28.4171 117.197 28.0946 116.939 27.9656C116.724 27.8366 116.272 27.7721 115.584 27.7721H114.101L113.843 27.3206L114.423 22.9344C114.423 22.9344 114.81 22.9559 115.584 22.999C116.401 22.999 117.347 23.0205 118.422 23.0635C119.54 23.0635 120.572 23.0635 121.518 23.0635C122.421 23.0635 123.346 23.0635 124.292 23.0635C125.238 23.0205 126.034 22.999 126.679 22.999C127.324 22.999 127.646 22.999 127.646 22.999L127.13 27.7076C126.141 27.8366 125.453 28.0946 125.066 28.4816C124.722 28.8687 124.335 29.6857 123.905 30.9327L116.487 53.1215L106.167 54.0246C106.038 53.2935 105.844 52.369 105.586 51.251C105.371 50.1329 105.113 48.9289 104.812 47.6388C104.554 46.3058 104.253 44.9512 103.909 43.5752C103.608 42.1561 103.307 40.7586 103.006 39.3825H102.103L98.362 53.1215L87.7837 54.0246Z" fill="#212121"/>
<path d="M128.284 53.8311L128.929 48.9934C130.176 48.8214 131.1 48.4344 131.702 47.8323C132.304 47.1873 132.605 46.2628 132.605 45.0587V32.4163C132.605 30.9972 132.39 30.0297 131.96 29.5137C131.573 28.9977 130.821 28.7397 129.703 28.7397C129.488 28.7397 129.187 28.7827 128.8 28.8687C128.413 28.9547 128.219 28.9977 128.219 28.9977L128.671 24.547C130.348 24.332 132.003 24.0955 133.637 23.8375C135.271 23.5795 136.755 23.343 138.088 23.128C139.421 22.8699 140.474 22.6764 141.249 22.5474C142.066 22.3754 142.474 22.2894 142.474 22.2894L143.184 23.515C142.926 23.988 142.689 24.8695 142.474 26.1596C142.302 27.4066 142.152 29.0192 142.023 30.9972C141.894 32.9323 141.786 35.1899 141.7 37.77C141.657 40.3071 141.636 43.0807 141.636 46.0908C141.636 46.9938 141.765 47.6388 142.023 48.0259C142.281 48.3699 142.754 48.5419 143.442 48.5419C143.786 48.5419 144.151 48.5204 144.538 48.4774C144.968 48.4344 145.183 48.4129 145.183 48.4129L145.312 48.6709L144.667 53.3795C144.667 53.3795 144.388 53.358 143.829 53.315C143.27 53.315 142.582 53.2935 141.765 53.2505C140.948 53.2075 140.087 53.1645 139.184 53.1215C138.324 53.1215 137.529 53.1215 136.798 53.1215C135.68 53.1215 134.454 53.1645 133.121 53.2505C131.788 53.3795 130.649 53.5085 129.703 53.6376C128.757 53.7666 128.284 53.8311 128.284 53.8311ZM136.54 17.9033C134.82 17.9033 133.508 17.4303 132.605 16.4842C131.745 15.5382 131.315 14.2696 131.315 12.6786C131.315 10.9155 131.831 9.49647 132.863 8.42143C133.938 7.34639 135.336 6.80887 137.056 6.80887C138.69 6.80887 139.958 7.28189 140.861 8.22792C141.765 9.17395 142.216 10.464 142.216 12.0981C142.216 13.8611 141.7 15.2802 140.668 16.3552C139.636 17.3872 138.26 17.9033 136.54 17.9033Z" fill="#212121"/>
<path d="M162.202 53.8956C159.192 53.8956 156.59 53.2935 154.397 52.0895C152.247 50.8425 150.592 49.1009 149.431 46.8648C148.27 44.5857 147.689 41.8551 147.689 38.673C147.689 35.4479 148.356 32.6098 149.689 30.1587C151.065 27.7076 152.957 25.7941 155.365 24.418C157.773 22.999 160.568 22.2894 163.75 22.2894C165.513 22.2894 167.018 22.3969 168.265 22.6119C169.512 22.8269 170.48 23.0635 171.168 23.3215C171.899 23.5365 172.265 23.644 172.265 23.644L172.523 24.289C172.523 24.289 172.415 24.7835 172.2 25.7726C172.028 26.7616 171.835 28.0516 171.62 29.6427C171.405 31.2337 171.233 32.9538 171.104 34.8029L166.201 35.0609V32.8678C166.201 31.4058 165.9 30.3522 165.298 29.7072C164.739 29.0192 163.901 28.6752 162.783 28.6752C161.149 28.6752 159.902 29.2987 159.042 30.5457C158.182 31.7928 157.752 33.6418 157.752 36.0929C157.752 39.49 158.268 42.0701 159.3 43.8332C160.375 45.5533 161.944 46.4133 164.008 46.4133C165.212 46.4133 166.309 46.2628 167.298 45.9618C168.33 45.6608 169.147 45.3598 169.749 45.0587C170.351 44.7577 170.652 44.6072 170.652 44.6072L171.233 44.8652L172.394 48.8644C172.394 48.8644 172.071 49.1224 171.426 49.6384C170.781 50.1114 169.942 50.6919 168.91 51.38C167.878 52.068 166.76 52.6485 165.556 53.1215C164.395 53.6376 163.277 53.8956 162.202 53.8956Z" fill="#212121"/>
<path d="M185.266 53.8956C183.46 53.8956 181.869 53.7236 180.493 53.3795C179.16 53.0785 178.107 52.7775 177.333 52.4765C176.558 52.1325 176.171 51.9605 176.171 51.9605L175.655 51.1865C175.784 50.4984 175.892 49.6814 175.978 48.7354C176.107 47.7463 176.214 46.7358 176.3 45.7038C176.429 44.6287 176.537 43.6612 176.623 42.8012L180.88 42.4142C180.923 44.2632 181.418 45.7038 182.364 46.7358C183.31 47.7678 184.621 48.2839 186.298 48.2839C187.33 48.2839 188.169 48.0689 188.814 47.6388C189.502 47.2088 189.846 46.6498 189.846 45.9618C189.846 45.4458 189.674 44.9942 189.33 44.6072C189.029 44.1772 188.448 43.7257 187.588 43.2527C186.771 42.7367 185.546 42.1131 183.912 41.3821C181.289 40.2211 179.375 38.9525 178.171 37.5765C177.01 36.1574 176.429 34.4804 176.429 32.5453C176.429 30.4812 177.01 28.6967 178.171 27.1916C179.375 25.6435 181.031 24.4395 183.138 23.5795C185.245 22.7194 187.696 22.2894 190.491 22.2894C192.77 22.2894 194.598 22.5044 195.974 22.9344C197.393 23.3215 198.102 23.515 198.102 23.515L198.554 24.3535C198.554 24.3535 198.468 24.7835 198.296 25.6435C198.167 26.4606 197.995 27.5356 197.78 28.8687C197.608 30.1587 197.457 31.5133 197.328 32.9323L193.007 33.1903C193.007 33.1903 193.007 33.1043 193.007 32.9323C193.05 32.7173 193.071 32.5453 193.071 32.4163C193.028 30.9112 192.684 29.8147 192.039 29.1267C191.394 28.4386 190.383 28.0946 189.007 28.0946C188.018 28.0946 187.201 28.3311 186.556 28.8042C185.954 29.2342 185.653 29.7932 185.653 30.4812C185.653 31.2122 185.954 31.8573 186.556 32.4163C187.158 32.9753 188.126 33.5773 189.459 34.2224C192.039 35.3834 194.039 36.4584 195.458 37.4475C196.877 38.3935 197.844 39.3825 198.36 40.4146C198.919 41.4466 199.199 42.6507 199.199 44.0267C199.199 45.9188 198.597 47.6173 197.393 49.1224C196.189 50.5844 194.533 51.7455 192.426 52.6055C190.319 53.4655 187.932 53.8956 185.266 53.8956Z" fill="#212121"/>
<path d="M107.161 5.90733L68.8867 4.99199C63.1138 4.85393 58.9791 10.5229 60.8743 15.9776C61.4317 17.582 62.9478 18.6542 64.6463 18.6452L101.629 18.4496C103.28 18.4408 104.82 17.618 105.744 16.2506L109.574 10.587C110.903 8.62162 109.533 5.96405 107.161 5.90733Z" fill="#212121"/>
<path d="M69.6076 14.4412C69.6076 14.4412 69.5899 14.3689 69.5545 14.2244C69.5245 14.0747 69.4818 13.8794 69.4264 13.6387C69.3764 13.3926 69.3161 13.1198 69.2455 12.8201C69.1748 12.5205 69.1016 12.2155 69.0258 11.9051C68.9554 11.5894 68.8848 11.2898 68.8139 11.0061C68.7485 10.7172 68.6878 10.471 68.6319 10.2676C68.5863 10.091 68.524 9.96479 68.445 9.88905C68.3661 9.80797 68.26 9.7612 68.1269 9.74874C68.1217 9.738 68.1165 9.72726 68.1113 9.71652C68.1008 9.70038 68.0903 9.68957 68.0797 9.68409L68.1511 9.14101C68.1511 9.14101 68.2097 9.14447 68.327 9.15139C68.4443 9.15297 68.5829 9.15751 68.7428 9.16501C68.9028 9.16717 69.0414 9.16904 69.1588 9.17063C69.3881 9.17372 69.6068 9.17135 69.8149 9.16349C70.0284 9.15571 70.2018 9.15005 70.3352 9.14652C70.4687 9.13765 70.5354 9.13322 70.5354 9.13322L70.5824 9.20586L70.5349 9.76527C70.364 9.77897 70.2384 9.79594 70.1581 9.81619C70.0833 9.83118 70.0322 9.85716 70.0051 9.89413C69.9833 9.92584 69.972 9.97635 69.971 10.0457C69.9704 10.0937 69.9798 10.1845 69.9993 10.3181C70.0189 10.4517 70.0433 10.6147 70.0727 10.8071C70.1075 10.9943 70.1448 11.1948 70.1846 11.4087C70.2244 11.6226 70.2642 11.8338 70.3041 12.0424C70.3439 12.2509 70.3787 12.4407 70.4084 12.6118C70.4435 12.7776 70.471 12.914 70.4909 13.021C70.5108 13.1226 70.5208 13.1734 70.5208 13.1734L70.6488 13.1751C70.6763 13.1115 70.7125 13.0026 70.7572 12.8486C70.8074 12.6892 70.8632 12.5033 70.9248 12.2908C70.9863 12.0782 71.048 11.8551 71.1098 11.6212C71.177 11.3874 71.2414 11.1643 71.3029 10.9518C71.3645 10.7339 71.4151 10.5452 71.4546 10.3858C71.4554 10.3271 71.4534 10.2764 71.4486 10.2337C71.4439 10.1856 71.4392 10.1429 71.4343 10.1055C71.42 9.98258 71.3758 9.89931 71.3017 9.85564C71.2276 9.81197 71.0946 9.78884 70.9026 9.78624L70.8635 9.72171L70.9348 9.17862C70.9348 9.17862 70.9748 9.18183 71.0547 9.18824C71.14 9.1894 71.244 9.1908 71.3667 9.19246C71.4947 9.19419 71.6253 9.19862 71.7585 9.20575C71.8919 9.20755 72.0092 9.20914 72.1105 9.21051C72.3291 9.21346 72.5425 9.21101 72.7507 9.20316C72.9641 9.19537 73.1402 9.18975 73.2789 9.18629C73.4177 9.1775 73.4871 9.17311 73.4871 9.17311L73.5342 9.24575L73.4786 9.80505C73.3131 9.81881 73.1901 9.83582 73.1099 9.85607C73.0297 9.87099 72.9786 9.89697 72.9568 9.93401C72.935 9.96572 72.9237 10.0162 72.9228 10.0856C72.9221 10.1336 72.9315 10.2244 72.9511 10.358C72.9707 10.4862 72.9978 10.6466 73.0326 10.8391C73.0673 11.0316 73.1019 11.2348 73.1364 11.4486C73.1761 11.6625 73.2133 11.8737 73.2478 12.0821C73.2877 12.2907 73.3224 12.4805 73.3521 12.6516C73.3872 12.8174 73.4147 12.9538 73.4346 13.0608C73.4546 13.1624 73.4645 13.2132 73.4645 13.2132L73.6005 13.215C73.6227 13.1566 73.6588 13.0478 73.709 12.8884C73.7592 12.7238 73.8151 12.5298 73.8768 12.3067C73.9439 12.0782 74.0111 11.8418 74.0784 11.5973C74.1511 11.3529 74.2155 11.1218 74.2718 10.9039C74.3335 10.6807 74.3814 10.492 74.4155 10.3378C74.455 10.1783 74.475 10.0772 74.4756 10.0345C74.4766 9.95988 74.4533 9.90889 74.4056 9.88158C74.3633 9.85434 74.2782 9.83985 74.1502 9.83812L73.8862 9.83456L73.8471 9.77002L73.9108 9.20283C73.9108 9.20283 73.9747 9.20636 74.1026 9.21342C74.2306 9.22049 74.3851 9.22791 74.5664 9.23569C74.7476 9.24347 74.9156 9.24841 75.0702 9.2505C75.2142 9.25245 75.3555 9.25436 75.4942 9.25623C75.6329 9.25277 75.7503 9.25169 75.8463 9.25299C75.9423 9.24895 75.9904 9.24693 75.9904 9.24693L75.9263 9.84612C75.8193 9.86601 75.7415 9.9023 75.6928 9.95498C75.6441 10.0077 75.5947 10.111 75.5446 10.265L74.2091 14.3593L72.5753 14.4813C72.5558 14.3477 72.5286 14.1873 72.4938 14.0001C72.4591 13.8076 72.4192 13.5991 72.3743 13.3745C72.3347 13.1446 72.2873 12.9012 72.2321 12.6445C72.1822 12.3878 72.1271 12.1257 72.0667 11.8582L71.9707 11.8569L71.2414 14.3192L69.6076 14.4412ZM76.82 14.4826L76.8919 13.8995C77.1219 13.8546 77.2721 13.79 77.3426 13.7056C77.4131 13.6159 77.4499 13.4617 77.4528 13.2431L77.5007 10.2914C77.5029 10.1261 77.4831 10.0165 77.4411 9.9626C77.4046 9.90343 77.3303 9.87309 77.2183 9.87158C77.1863 9.87115 77.1463 9.87327 77.0982 9.87796C77.0503 9.87731 77.0076 9.8794 76.9702 9.88423L76.9153 9.79548L76.9865 9.26839C77.1838 9.27106 77.3837 9.27643 77.5863 9.2845C77.7943 9.28731 77.9889 9.28994 78.1703 9.29239C78.2716 9.29376 78.429 9.29055 78.6424 9.28277C78.8612 9.27506 79.1173 9.26785 79.4108 9.26115L79.3546 9.86844C79.1622 9.89251 79.0337 9.93078 78.969 9.98324C78.9043 10.0357 78.8655 10.1392 78.8528 10.2937C78.839 10.5282 78.8249 10.776 78.8107 11.0372C78.7965 11.2984 78.7823 11.5622 78.768 11.8287C78.7538 12.0952 78.7422 12.3564 78.7335 12.6123C78.7301 12.8629 78.7269 13.0949 78.7241 13.3082C78.721 13.5322 78.7377 13.6818 78.774 13.757C78.8157 13.8269 78.8926 13.8626 79.0046 13.8641C79.0579 13.8648 79.1113 13.8629 79.1647 13.8582C79.2234 13.8537 79.2715 13.849 79.3089 13.8442L79.356 13.9088L79.2761 14.4918C79.1482 14.4847 79.0016 14.4774 78.8364 14.4699C78.6765 14.4624 78.5219 14.4549 78.3726 14.4476C78.2286 14.4456 78.114 14.4441 78.0287 14.4429C77.9007 14.4412 77.7246 14.4442 77.5005 14.4518C77.2817 14.4595 77.0549 14.4698 76.82 14.4826ZM82.8044 14.6035C82.8044 14.6035 82.7645 14.5976 82.6847 14.5859C82.6048 14.5741 82.501 14.562 82.3731 14.5497C82.2453 14.5373 82.1094 14.5248 81.9656 14.5121C81.8217 14.4995 81.6912 14.4924 81.5738 14.4908C81.4298 14.4889 81.2725 14.4921 81.1017 14.5005C80.9361 14.5142 80.792 14.5256 80.6692 14.5346C80.5517 14.5437 80.493 14.5482 80.493 14.5482L80.5655 13.9172C80.7846 13.8881 80.9321 13.8288 81.0079 13.7391C81.0839 13.6442 81.1234 13.4847 81.1264 13.2607L81.1654 10.373C81.1677 10.2023 81.1533 10.0874 81.1221 10.0283C81.0909 9.96924 81.0299 9.93908 80.9393 9.93786C80.886 9.93714 80.8299 9.93905 80.7712 9.94359C80.7125 9.94813 80.6831 9.9504 80.6831 9.9504L80.6203 9.86154L80.6999 9.30257C80.6999 9.30257 80.7398 9.30577 80.8197 9.31219C80.9051 9.31334 81.0063 9.31737 81.1236 9.32429C81.2463 9.32595 81.3689 9.33027 81.4915 9.33726C81.6194 9.33899 81.7208 9.34036 81.7954 9.34137C81.8861 9.3426 82.0034 9.34151 82.1475 9.33813C82.2916 9.33474 82.4356 9.33135 82.5797 9.32797C82.7237 9.32458 82.8438 9.32353 82.9398 9.32483C83.0412 9.32087 83.0918 9.31888 83.0918 9.31888C83.6411 9.32631 84.1038 9.4259 84.4799 9.61767C84.8614 9.8095 85.1483 10.0854 85.3408 10.4454C85.5387 10.8001 85.6342 11.2361 85.6272 11.7534C85.6214 12.1853 85.5494 12.5764 85.4113 12.9266C85.2732 13.2767 85.0798 13.5808 84.8309 13.8388C84.5822 14.0915 84.2862 14.2848 83.943 14.4188C83.5999 14.5476 83.2204 14.6091 82.8044 14.6035ZM82.7128 10.1378C82.6381 10.1368 82.5872 10.1521 82.5601 10.1838C82.5331 10.2101 82.5164 10.2605 82.5101 10.3351C82.4705 10.8946 82.4394 11.4169 82.4169 11.902C82.3943 12.3871 82.3801 12.8456 82.3743 13.2776C82.3725 13.4109 82.3844 13.515 82.4101 13.5901C82.4411 13.6598 82.4912 13.7085 82.5601 13.7361C82.6344 13.7638 82.7382 13.7785 82.8716 13.7803C83.2875 13.7859 83.5988 13.6461 83.8053 13.3609C84.0119 13.0703 84.1194 12.6184 84.1277 12.0051C84.1337 11.5572 84.0879 11.1992 83.9901 10.9312C83.8978 10.6579 83.7458 10.4585 83.5342 10.333C83.3279 10.2075 83.0541 10.1424 82.7128 10.1378ZM89.0798 14.6803C88.5785 14.6735 88.1479 14.5663 87.788 14.3588C87.4334 14.1513 87.1627 13.857 86.9759 13.4757C86.7891 13.0892 86.6992 12.6319 86.7064 12.104C86.7144 11.512 86.8332 11.0096 87.0628 10.5966C87.2924 10.1837 87.622 9.87081 88.0515 9.65792C88.4864 9.44511 89.0052 9.34278 89.6078 9.35092C89.7838 9.3533 89.965 9.36642 90.1513 9.39027C90.343 9.41419 90.5187 9.44057 90.6783 9.4694C90.8379 9.49822 90.9656 9.52395 91.0613 9.54658C91.1571 9.56387 91.205 9.57252 91.205 9.57252L91.2752 9.70148C91.2752 9.70148 91.2583 9.76793 91.2245 9.90081C91.1907 10.0337 91.1536 10.2146 91.1132 10.4434C91.0781 10.6722 91.0505 10.9359 91.0305 11.2343L90.0618 11.2772C90.0618 11.2772 90.0651 11.2346 90.0716 11.1494C90.0781 11.0641 90.0821 10.9601 90.0838 10.8375C90.0867 10.6242 90.038 10.4768 89.9377 10.3955C89.8376 10.3088 89.6568 10.2637 89.3955 10.2601C89.1235 10.2565 88.8988 10.3094 88.7213 10.419C88.5439 10.5233 88.4109 10.6922 88.3224 10.9257C88.2393 11.1593 88.1951 11.4654 88.19 11.844C88.1842 12.2706 88.2221 12.6285 88.3035 12.9176C88.385 13.2014 88.5075 13.4164 88.6708 13.5626C88.8396 13.7036 89.0467 13.7757 89.292 13.7791C89.4253 13.7809 89.5375 13.769 89.6285 13.7436C89.7248 13.7182 89.7972 13.6925 89.8455 13.6665C89.8939 13.6405 89.9181 13.6275 89.9181 13.6275L89.9268 12.9796C89.9288 12.8356 89.9087 12.7393 89.8667 12.6907C89.83 12.6422 89.7477 12.6171 89.6197 12.6154C89.5717 12.6147 89.5211 12.614 89.4677 12.6133C89.4144 12.6126 89.3664 12.6146 89.3236 12.6194C89.2863 12.6189 89.2676 12.6186 89.2676 12.6186L89.2128 12.5299L89.3176 11.8832C89.4136 11.8845 89.5229 11.886 89.6456 11.8877C89.7735 11.8894 89.9068 11.8939 90.0454 11.9011C90.1894 11.903 90.3334 11.905 90.4774 11.9069C90.6214 11.9088 90.7574 11.908 90.8854 11.9044C91.0189 11.8956 91.1283 11.889 91.2137 11.8848C91.3045 11.8807 91.3498 11.8787 91.3498 11.8787L91.4087 12.2555C91.3012 12.3181 91.2202 12.3943 91.1656 12.4843C91.1165 12.5689 91.0801 12.6965 91.0565 12.8668C91.0381 13.0372 91.0268 13.2851 91.0224 13.6104C91.0203 13.7651 91.0212 13.8984 91.025 14.0105C91.0342 14.1226 91.0489 14.2188 91.0691 14.2991L90.9876 14.41C90.9876 14.41 90.9126 14.4357 90.7625 14.487C90.6126 14.533 90.3933 14.578 90.1047 14.6221C89.8214 14.6663 89.4797 14.6857 89.0798 14.6803ZM92.6111 14.72L92.6835 14.0969C92.8972 14.0678 93.0421 14.0057 93.118 13.9108C93.1993 13.8159 93.2416 13.6484 93.2448 13.4084L93.2919 10.5208C93.2942 10.3502 93.2797 10.2353 93.2485 10.1762C93.2173 10.1171 93.1537 10.0869 93.0577 10.0856C93.0257 10.0852 92.9857 10.0873 92.9376 10.092C92.895 10.0914 92.8576 10.0936 92.8255 10.0985L92.7547 10.0095L92.8341 9.46652C92.9727 9.46839 93.138 9.47329 93.3299 9.48122C93.5271 9.48922 93.7244 9.49722 93.9216 9.50522C94.1243 9.50796 94.3056 9.51041 94.4656 9.51257C94.8282 9.51747 95.1642 9.51934 95.4736 9.51819C95.7884 9.51177 96.0685 9.50222 96.3141 9.48954C96.5596 9.47686 96.7598 9.46356 96.9147 9.44965L96.9932 9.55472C96.9647 9.69302 96.9359 9.85264 96.9068 10.0336C96.8831 10.2093 96.8593 10.3877 96.8355 10.5687C96.8172 10.7445 96.8016 10.9096 96.7888 11.0641L95.9082 11.1082C95.9141 11.0656 95.9174 11.015 95.9182 10.9563C95.9244 10.8924 95.9278 10.8418 95.9283 10.8044C95.9296 10.7031 95.9174 10.6203 95.8916 10.5559C95.8712 10.4916 95.8291 10.4431 95.7656 10.4102C95.7074 10.3721 95.6171 10.3469 95.4946 10.3345C95.3721 10.3222 95.2121 10.3147 95.0148 10.3121C94.9135 10.3107 94.8361 10.315 94.7826 10.3249C94.7292 10.3349 94.6942 10.3584 94.6777 10.3955C94.6612 10.4273 94.6526 10.4778 94.6516 10.5472L94.541 12.2178L94.5086 13.4335C94.5067 13.5775 94.5159 13.6843 94.5363 13.7539C94.5568 13.8182 94.5988 13.8614 94.6625 13.8836C94.7263 13.9058 94.8274 13.9179 94.9661 13.9197C95.1794 13.9226 95.3529 13.9143 95.4865 13.8948C95.6254 13.8753 95.7326 13.8367 95.8081 13.7791C95.8835 13.7214 95.9434 13.6342 95.9876 13.5175C96.0319 13.4008 96.066 13.2439 96.09 13.0468L96.9147 13.002L96.9854 13.0989C96.9399 13.3063 96.8938 13.5564 96.8472 13.8491C96.806 14.1366 96.7704 14.4028 96.7404 14.6478L96.643 14.7505C96.3712 14.7361 96.078 14.7215 95.7635 14.7066C95.4543 14.6971 95.1557 14.6877 94.8678 14.6785C94.5853 14.6693 94.3373 14.6633 94.124 14.6604C93.9107 14.6575 93.6626 14.6595 93.3799 14.6664C93.1023 14.6786 92.8461 14.6965 92.6111 14.72ZM94.4492 12.5046L94.5167 11.6495C94.554 11.65 94.618 11.6508 94.7087 11.652C94.7994 11.6533 94.898 11.6573 95.0046 11.664C95.1112 11.6655 95.2072 11.6668 95.2925 11.6679C95.3779 11.6691 95.5113 11.6656 95.6927 11.6573C95.8796 11.6439 96.0477 11.6328 96.1972 11.6242L96.276 11.7132L96.1534 12.4956C96.0202 12.4885 95.8549 12.4809 95.6577 12.4729C95.4605 12.4649 95.2898 12.46 95.1459 12.458C95.0179 12.4563 94.8898 12.4626 94.7616 12.4768C94.6334 12.4858 94.5293 12.495 94.4492 12.5046ZM98.7119 14.7784L98.7842 14.1633C99.0085 14.145 99.1769 14.118 99.2893 14.0822C99.4019 14.041 99.4775 13.97 99.5162 13.8692C99.5603 13.7631 99.5838 13.6088 99.5865 13.4061L99.6278 10.3504C99.4571 10.3534 99.3209 10.3676 99.2192 10.3929C99.1229 10.4129 99.0449 10.4599 98.9853 10.5337C98.931 10.6023 98.8869 10.7057 98.8531 10.844C98.8245 10.9823 98.798 11.1686 98.7735 11.4029L97.9728 11.4481C97.9861 11.251 97.9997 11.0405 98.0134 10.8166C98.0271 10.5875 98.0408 10.3636 98.0544 10.1451C98.068 9.92661 98.076 9.7347 98.0782 9.56938L98.1755 9.47469L99.0382 9.57435L101.534 9.60807L102.423 9.53208L102.51 9.62926C102.512 9.84265 102.515 10.064 102.517 10.2934C102.519 10.5175 102.524 10.7309 102.532 10.9337C102.54 11.1365 102.546 11.3099 102.549 11.454L101.748 11.4991C101.725 11.2428 101.701 11.0425 101.677 10.8981C101.652 10.7484 101.613 10.6386 101.561 10.5685C101.514 10.4932 101.443 10.4443 101.347 10.4216C101.257 10.3937 101.129 10.376 100.964 10.3684C100.956 10.571 100.945 10.8002 100.93 11.0561C100.922 11.312 100.913 11.5865 100.903 11.8798C100.894 12.1677 100.885 12.4582 100.875 12.7515C100.866 13.0447 100.86 13.3246 100.856 13.5913C100.853 13.7886 100.884 13.9303 100.946 14.0165C101.015 14.0975 101.126 14.139 101.281 14.1411C101.393 14.1426 101.531 14.1365 101.697 14.1227L101.728 14.1711L101.648 14.8021C101.493 14.7893 101.32 14.779 101.128 14.7711C100.936 14.7685 100.752 14.7633 100.576 14.7556C100.4 14.7479 100.262 14.7434 100.161 14.742C100.065 14.7407 99.9338 14.7416 99.7684 14.7447C99.6084 14.7479 99.435 14.7509 99.2483 14.7537C99.0615 14.7618 98.8827 14.7701 98.7119 14.7784Z" fill="white"/>
</svg>
